<?xml version="1.0" encoding="UTF-8" standalone="no"?>
<!-- Created with Inkscape (http://www.inkscape.org/) -->

<svg
   width="63.42852mm"
   height="53.55933mm"
   viewBox="0 0 63.42852 53.55933"
   version="1.1"
   id="svg6590"
   inkscape:version="1.1.2 (0a00cf5339, 2022-02-04)"
   sodipodi:docname="logo_escoteirando.svg"
   xmlns:inkscape="http://www.inkscape.org/namespaces/inkscape"
   xmlns:sodipodi="http://sodipodi.sourceforge.net/DTD/sodipodi-0.dtd"
   xmlns="http://www.w3.org/2000/svg"
   xmlns:svg="http://www.w3.org/2000/svg">
  <sodipodi:namedview
     id="namedview6592"
     pagecolor="#ffffff"
     bordercolor="#666666"
     borderopacity="1.0"
     inkscape:pageshadow="2"
     inkscape:pageopacity="0.0"
     inkscape:pagecheckerboard="0"
     inkscape:document-units="mm"
     showgrid="false"
     fit-margin-top="1"
     fit-margin-left="1"
     fit-margin-right="1"
     fit-margin-bottom="1"
     lock-margins="true"
     inkscape:zoom="0.75187991"
     inkscape:cx="86.449976"
     inkscape:cy="23.274993"
     inkscape:window-width="1920"
     inkscape:window-height="1016"
     inkscape:window-x="0"
     inkscape:window-y="27"
     inkscape:window-maximized="1"
     inkscape:current-layer="layer1" />
  <defs
     id="defs6587" />
  <g
     inkscape:label="Camada 1"
     inkscape:groupmode="layer"
     id="layer1"
     transform="translate(-81.94806,-142.48218)">
    <path
       style="fill:#333333;fill-opacity:1;stroke-width:0.264583"
       d="m 82.94806,143.48218 h 61.42852 v 51.55933 H 82.94806 Z m 21.26435,40.85132 c 3.35361,-1.05087 5.48626,-2.28418 7.42328,-4.29288 1.68266,-1.74493 1.70633,-1.79016 2.01038,-3.84133 0.19637,-1.32471 0.64193,-2.77054 1.2316,-3.99651 0.94256,-1.95967 1.21534,-3.78176 0.59319,-3.96238 -0.18191,-0.0528 -1.69995,-0.28002 -3.37344,-0.50492 -1.8557,-0.24939 -3.4516,-0.62156 -4.09084,-0.95401 -1.27647,-0.66386 -3.61429,-0.74703 -4.11283,-0.14632 -0.27887,0.33601 -0.20066,0.44422 0.49677,0.68734 0.45525,0.1587 0.82773,0.47395 0.82773,0.70055 0,0.35195 -0.0764,0.34285 -0.5242,-0.0624 -0.37883,-0.34283 -0.6173,-0.39726 -0.8599,-0.19624 -0.45372,0.37596 -1.52631,-0.49524 -1.52631,-1.23972 0,-0.4871 -0.15746,-0.5529 -1.32292,-0.5529 -1.24682,0 -1.76918,0.37453 -0.95702,0.68618 0.30007,0.11515 0.27811,0.31596 -0.12205,1.11617 -0.83869,1.67713 -2.09593,5.01586 -2.09593,5.56594 0,0.72878 0.27075,1.36296 0.58189,1.36296 0.14338,0 0.57311,-0.24576 0.95497,-0.54613 0.56972,-0.44814 0.91624,-0.51559 1.93143,-0.37597 0.77888,0.10713 1.3025,0.0644 1.41358,-0.11533 0.25541,-0.41326 1.20355,-0.35103 1.20355,0.079 0,0.80033 -2.34326,1.74004 -3.65552,1.46595 -0.70167,-0.14655 -0.98191,-0.0711 -1.3993,0.37696 -1.38604,1.48773 -0.68185,2.90826 1.30687,2.63628 0.92521,-0.12653 1.25758,-0.32787 1.7198,-1.04178 0.31511,-0.48671 0.67088,-0.8864 0.79058,-0.8882 0.1197,-0.002 -0.0291,0.31044 -0.33073,0.69387 -0.72734,0.92466 -0.69466,1.06674 0.24538,1.06674 0.47431,0 0.79375,-0.13822 0.79375,-0.34346 0,-0.50293 0.97852,-0.97843 1.14914,-0.55841 0.10187,0.25079 0.19494,0.2406 0.39295,-0.043 0.21121,-0.30249 0.38937,-0.23145 0.95788,0.38198 0.39246,0.42348 0.66431,0.99192 0.62057,1.29766 -0.067,0.46805 -0.23961,0.53363 -1.23569,0.46936 -0.63682,-0.0411 -1.3512,-0.17627 -1.5875,-0.3004 -0.2363,-0.12414 -1.17914,-0.3112 -2.0952,-0.41569 l -1.66555,-0.18997 0.2048,0.75497 c 0.11264,0.41523 0.18891,1.61306 0.1695,2.66185 -0.0308,1.66391 0.0442,1.99262 0.58822,2.57969 0.34294,0.37004 0.74213,0.67279 0.88709,0.67279 0.14495,0 1.25197,-0.30972 2.46003,-0.68827 z m 16.13077,-8.24141 c 2.06934,-1.86055 3.01407,-3.97651 2.44156,-5.46847 -0.26806,-0.69854 -0.54882,-0.46835 -0.42852,0.35134 0.0622,0.42342 -0.004,0.97919 -0.14735,1.23506 -0.21392,0.38224 -0.29357,0.26855 -0.44665,-0.63756 -0.20355,-1.20481 -0.29578,-1.26837 -1.03178,-0.711 -0.35215,0.26669 -0.44765,0.56397 -0.33076,1.02967 0.12006,0.47837 -0.0202,0.87399 -0.52061,1.46873 -0.91321,1.08528 -1.26944,1.04579 -1.05139,-0.11654 0.23508,-1.25307 0.0288,-1.48223 -0.91178,-1.013 -0.64804,0.32328 -0.7914,0.55904 -0.7914,1.30146 0,0.49866 0.11906,0.90666 0.26459,0.90666 0.14552,0 0.26458,-0.19844 0.26458,-0.44097 0,-0.24253 0.0752,-0.36579 0.16707,-0.2739 0.0919,0.0919 0.15366,0.76191 0.13728,1.48895 -0.0224,0.99581 0.0832,1.38772 0.42825,1.58878 0.68042,0.39647 0.75869,0.3681 1.95691,-0.70921 z m 18.06196,-11.14901 c 0.0799,-0.12922 -0.35959,-0.30956 -0.97657,-0.40075 -1.76081,-0.26026 -7.5526,-0.6746 -9.5223,-0.68122 l -1.78593,-0.006 -0.006,-4.16719 c -0.008,-5.42211 -0.11441,-5.67391 -3.48143,-8.20462 -4.02572,-3.0258 -8.38179,-5.88218 -9.01864,-5.91374 -1.42392,-0.0706 -2.09849,0.18014 -5.22121,1.94041 -7.99568,4.50715 -8.72005,5.40632 -8.93667,11.09313 -0.0701,1.84082 -0.2198,3.49632 -0.33262,3.67888 -0.30979,0.50125 -2.79704,0.81676 -7.92862,1.00574 -2.79674,0.10299 -4.63021,0.27528 -4.63021,0.4351 0,0.17227 7.10784,0.3381 20.37291,0.4753 16.22226,0.16779 29.24299,0.56217 31.13907,0.94317 0.10056,0.0202 0.24817,-0.069 0.32803,-0.19821 z m -37.45599,-2.02437 c 1.11842,-0.48557 1.23984,-0.48405 0.82952,0.0104 -0.18116,0.21828 -0.64222,0.39221 -1.02459,0.38652 -0.66577,-0.01 -0.65751,-0.0267 0.19507,-0.39688 z m 15.3816,-0.12193 c -0.3638,-0.11651 -1.13175,-0.22371 -1.70656,-0.23821 -0.83608,-0.0211 -0.97896,-0.0925 -0.71438,-0.35711 0.18191,-0.1819 0.71013,-0.33073 1.17384,-0.33073 0.67081,0 0.9188,-0.15795 1.21357,-0.77296 0.48013,-1.00176 0.18042,-1.47113 -1.24214,-1.94532 -0.60807,-0.20268 -1.10558,-0.53052 -1.10558,-0.72851 0,-0.27862 0.49868,-0.34922 2.20636,-0.31235 l 2.20637,0.0476 -0.47978,2.12034 c -0.26388,1.16619 -0.48284,2.26917 -0.48657,2.45107 -0.007,0.36674 -0.10721,0.37293 -1.06513,0.0661 z m -2.77812,-11.05664 c -0.9043,-0.68343 -1.3488,-1.22085 -1.4047,-1.69836 -0.11304,-0.96561 0.91045,-2.91298 1.47396,-2.80446 0.73612,0.14176 2.15205,5.50865 1.45209,5.50395 -0.10914,-7.4e-4 -0.79375,-0.45124 -1.52135,-1.00113 z"
       id="path4726"
       sodipodi:nodetypes="cccccssssssssssssssssssssssscssccssssssssscssssssssccssscssssssssscssccsssssssssccsscsscssssssscscccsssss" />
    <g
       aria-label="Escoteirando"
       transform="rotate(0.34053495)"
       id="text2064"
       style="font-size:10.5177px;line-height:1.25;font-family:Courgette;-inkscape-font-specification:'Courgette, Normal';letter-spacing:0px;word-spacing:0px;fill:#ffffff;stroke-width:0.262942">
      <path
         d="m 90.480198,184.66597 q 0,-0.43139 -0.513559,-0.43139 -0.980899,0 -1.782052,0.909 -0.472475,0.5341 -0.662492,1.15551 -0.09244,0.303 -0.09244,0.5341 0,0.2311 0.05136,0.36976 0.05649,0.13353 0.138661,0.22083 0.17461,0.18489 0.405712,0.1438 0.251644,-0.10271 0.441662,-0.10271 0.195152,0 0.308135,0.0514 0.118119,0.0462 0.190017,0.11811 0.148933,0.1438 0.148933,0.27733 0,0.26191 -0.174611,0.27218 -0.267051,0.0257 -0.55978,0.14893 -0.292729,0.12326 -0.590593,0.32355 -0.297865,0.19515 -0.528966,0.44166 -0.528967,0.56491 -0.528967,1.13497 0,0.27218 0.12839,0.41084 0.215695,0.24138 0.51356,0.24138 0.297864,0 0.580322,-0.11299 0.287593,-0.11812 0.518695,-0.28245 0.349221,-0.25165 0.677899,-0.64195 0.164339,-0.19516 0.287593,-0.19516 0.123254,0 0.184882,0.14894 0.06676,0.14379 0.06676,0.30813 0,0.33895 -0.12839,0.50329 -0.128389,0.1592 -0.323542,0.32354 -0.190017,0.15921 -0.457068,0.29787 -0.64195,0.32867 -1.37634,0.32867 -1.237678,0 -1.694746,-0.81142 -0.164339,-0.303 -0.164339,-0.62141 0,-0.3184 0.09244,-0.59059 0.09758,-0.27219 0.246509,-0.50329 0.148932,-0.23624 0.333814,-0.42112 0.184881,-0.19001 0.364627,-0.32868 0.354356,-0.27732 0.585458,-0.31327 -0.580323,-0.2311 -0.780611,-0.89873 -0.06163,-0.21569 -0.06163,-0.52383 0,-0.30813 0.118119,-0.6779 0.118118,-0.37489 0.333814,-0.71384 0.215695,-0.34409 0.513559,-0.64195 0.297865,-0.29787 0.657356,-0.5187 0.775475,-0.47247 1.63312,-0.47247 0.898729,0 1.34039,0.44679 0.354356,0.3595 0.354356,0.91928 0,0.63681 -0.534102,1.28903 -0.323542,0.39031 -0.585457,0.52897 -0.25678,0.13866 -0.405713,0.15406 -0.143796,0.0103 -0.272186,-0.0359 -0.123254,-0.0514 -0.215695,-0.13353 -0.21056,-0.19002 -0.21056,-0.34409 0,-0.19001 0.133526,-0.29272 l 0.462204,-0.32868 q 0.831966,-0.61114 0.831966,-1.06307 z"
         id="path6646" />
      <path
         d="m 90.608588,190.60785 q 0,-0.1592 0.06676,-0.29273 0.0719,-0.13866 0.174611,-0.2311 0.215695,-0.20029 0.451932,-0.20029 0.205424,0 0.205424,0.21056 0,0.53411 0.354356,0.74467 0.12839,0.077 0.267051,0.077 0.138661,0 0.236238,-0.0308 0.09758,-0.0308 0.179745,-0.0976 0.184882,-0.14893 0.184882,-0.35436 0,-0.20542 -0.09244,-0.37489 -0.09244,-0.17462 -0.231102,-0.36463 l -0.292729,-0.41085 q -0.616271,-0.8217 -0.616271,-1.515 0,-0.57519 0.487881,-1.04253 0.554645,-0.52896 1.42256,-0.52896 0.760069,0 1.186323,0.3749 0.349221,0.303 0.349221,0.6933 0,0.40571 -0.308136,0.64709 -0.277322,0.21569 -0.554644,0.1592 -0.123255,-0.0257 -0.190018,-0.12325 -0.06676,-0.10272 -0.02568,-0.23111 0.04109,-0.12839 0.04109,-0.26705 0,-0.13866 -0.05136,-0.25678 -0.05136,-0.11812 -0.138661,-0.20029 -0.179746,-0.16947 -0.380034,-0.16947 -0.195153,0 -0.323542,0.0462 -0.12839,0.0411 -0.225967,0.12325 -0.200288,0.18489 -0.200288,0.45707 0,0.26705 0.09244,0.46221 0.09244,0.19515 0.225966,0.3903 0.138661,0.19515 0.297865,0.39544 0.159203,0.20029 0.292729,0.42112 0.323542,0.5187 0.323542,0.91414 0,0.3903 -0.164339,0.65735 -0.164339,0.26192 -0.426254,0.45194 -0.55978,0.41598 -1.253086,0.41598 -0.662492,0 -1.047661,-0.31841 -0.318407,-0.26705 -0.318407,-0.63168 z"
         id="path6648" />
      <path
         d="m 95.287115,189.73994 q 0.01027,-0.4468 0.138661,-0.88846 0.133526,-0.4468 0.349221,-0.84224 0.220831,-0.39544 0.518695,-0.72925 0.303,-0.33382 0.657356,-0.57519 0.739526,-0.50842 1.556086,-0.50842 0.842238,0 1.145238,0.67276 0.107847,0.24137 0.09758,0.54951 -0.0051,0.303 -0.09758,0.55978 -0.09244,0.25164 -0.231102,0.45193 -0.313271,0.45193 -0.631678,0.45193 -0.354356,0 -0.523831,-0.19515 -0.148932,-0.16947 -0.09244,-0.39544 0.01541,-0.0668 0.09244,-0.11812 0.07703,-0.0565 0.195153,-0.17461 0.333813,-0.34922 0.34922,-0.81656 0.01027,-0.31841 -0.390305,-0.31841 -0.43139,0 -0.903865,0.48275 -0.68817,0.70358 -0.970628,1.80259 -0.246508,0.95523 0.09244,1.39689 0.200288,0.25678 0.544373,0.25678 0.580323,0 1.11956,-0.41085 0.164339,-0.12839 0.267051,-0.26192 0.102712,-0.13352 0.190017,-0.13352 0.0873,0 0.143797,0.0873 0.06163,0.0822 0.06163,0.2157 0,0.303 -0.272187,0.59573 -0.698441,0.66762 -1.679339,0.66762 -0.837103,0 -1.294171,-0.47761 -0.451932,-0.47247 -0.43139,-1.34552 z"
         id="path6650" />
      <path
         d="m 100.67949,191.1625 q -0.21569,-0.20543 -0.33895,-0.5187 -0.12325,-0.3184 -0.12839,-0.74979 -0.005,-0.43139 0.10271,-0.87306 0.11299,-0.44166 0.31327,-0.8525 0.20543,-0.41085 0.48789,-0.77034 0.28759,-0.3595 0.63167,-0.62655 0.7498,-0.57518 1.55609,-0.57518 1.05793,0 1.43283,0.92954 0.26705,0.67276 0.0308,1.62798 -0.21569,0.87819 -0.79088,1.61258 -0.57005,0.73439 -1.34552,1.04253 -0.39031,0.15406 -0.77034,0.15406 -0.3749,0 -0.67277,-0.0976 -0.29272,-0.0976 -0.50842,-0.303 z m 0.9809,-2.49077 q -0.15407,0.38004 -0.24651,0.78061 -0.0873,0.40058 -0.0822,0.76007 0.005,0.35436 0.10785,0.55978 0.10785,0.20029 0.34408,0.20029 0.23624,0 0.46221,-0.1592 0.2311,-0.16434 0.44679,-0.43139 0.2157,-0.26705 0.40572,-0.61627 0.19001,-0.34922 0.33381,-0.72926 0.31327,-0.82683 0.303,-1.46878 0,-0.56491 -0.2311,-0.71898 -0.0924,-0.0616 -0.26192,-0.0616 -0.16434,0 -0.38003,0.15407 -0.2157,0.14893 -0.43139,0.40571 -0.2157,0.25678 -0.41598,0.60087 -0.20029,0.34408 -0.35436,0.72411 z"
         id="path6652" />
      <path
         d="m 108.59858,190.16619 q 0.14893,0 0.14893,0.20029 0,0.16948 -0.10271,0.32868 -0.13866,0.29786 -0.55464,0.56491 -0.47248,0.303 -0.95009,0.303 -0.82683,0 -1.04766,-0.73952 -0.26192,-0.87819 0.78575,-3.72331 -0.5906,-0.0514 -0.64195,-0.20542 -0.0154,-0.0462 -0.0154,-0.0976 0,-0.0565 0.0462,-0.12839 0.0514,-0.0719 0.12839,-0.13866 0.17975,-0.14893 0.36463,-0.14893 h 0.40571 q 0.55464,-1.29931 0.79088,-1.47905 0.11298,-0.0822 0.25164,-0.0822 0.13867,0 0.23111,0.0359 0.0924,0.036 0.16434,0.10271 0.16433,0.15407 0.16433,0.34408 0,0.10272 -0.0616,0.23624 l -0.38004,0.82683 h 0.12326 q 0.3184,0 0.51356,-0.005 0,0 0.29273,-0.005 0.0976,-0.005 0.24137,-0.005 0.14893,0 0.14893,0.10785 0,0.6779 -1.6023,0.6779 h -0.0411 l -0.34922,0.90387 q -0.59059,1.6023 -0.59059,2.24425 0,0.17975 0.0822,0.28246 0.0822,0.0976 0.30813,0.0976 0.22597,0 0.41085,-0.077 0.18488,-0.077 0.32354,-0.16947 0.13866,-0.0976 0.23624,-0.17461 0.10271,-0.077 0.17461,-0.077 z"
         id="path6654" />
      <path
         d="m 109.43568,189.71426 q 0.0205,-0.4468 0.14893,-0.85251 0.12839,-0.41085 0.34409,-0.79088 0.21569,-0.38517 0.50329,-0.72412 0.29273,-0.34408 0.63168,-0.60086 0.73439,-0.54951 1.48418,-0.54951 0.87819,0 1.17092,0.72412 0.10271,0.2465 0.0976,0.58545 -0.005,0.33382 -0.12839,0.62141 -0.12325,0.28246 -0.34408,0.5187 -0.2157,0.2311 -0.5187,0.41598 -0.29786,0.18488 -0.65222,0.31327 -0.72925,0.25678 -1.56122,0.26705 -0.0205,0.0719 -0.0257,0.2157 -0.005,0.14379 0.0308,0.32354 0.0359,0.17461 0.12325,0.31327 0.18488,0.30814 0.5341,0.30814 0.59573,0 1.16065,-0.34922 0.20029,-0.11812 0.32354,-0.24138 0.12839,-0.12839 0.22083,-0.12839 0.0924,0 0.15921,0.11299 0.0719,0.10784 0.0719,0.2465 0,0.27219 -0.15406,0.47248 -0.64709,0.64708 -1.92585,0.64708 -0.75493,0 -1.212,-0.45193 -0.51356,-0.51356 -0.48275,-1.39688 z m 2.99919,-2.83485 q -0.53924,0 -1.03739,0.73953 -0.42112,0.63681 -0.6779,1.50986 0.85764,-0.0873 1.48932,-0.6779 0.58033,-0.55464 0.58033,-1.06306 0,-0.50843 -0.35436,-0.50843 z"
         id="path6656" />
      <path
         d="m 117.11853,184.99465 q -0.11298,0.11812 -0.25678,0.19515 -0.14379,0.0719 -0.303,0.0924 -0.1592,0.0154 -0.303,-0.0514 -0.13866,-0.0668 -0.24137,-0.19002 -0.22083,-0.25678 -0.22083,-0.5187 0,-0.26191 0.0822,-0.3903 0.0873,-0.13353 0.21569,-0.2157 0.24651,-0.1592 0.46221,-0.1592 0.22083,0 0.33895,0.0308 0.12325,0.0308 0.22596,0.10271 0.25165,0.16948 0.25165,0.41599 0,0.24137 -0.0719,0.40571 -0.0668,0.1592 -0.17975,0.28246 z m -1.05279,5.55671 q 0.13352,0 0.13352,0.17461 0,0.2311 -0.21056,0.47761 -0.30813,0.35949 -0.82683,0.35949 -0.59573,0 -0.81656,-0.48274 -0.0822,-0.16948 -0.0822,-0.41085 0,-0.24137 0.0822,-0.5341 0.0873,-0.29787 0.21056,-0.62141 0.12839,-0.32868 0.27732,-0.66249 l 0.27219,-0.64708 q 0.29786,-0.72412 0.29786,-0.95523 0,-0.2311 -0.0513,-0.303 -0.0462,-0.077 -0.10271,-0.11811 l -0.10272,-0.0719 q -0.0513,-0.0359 -0.0513,-0.12326 0,-0.0924 0.0668,-0.17461 0.0719,-0.0822 0.18488,-0.14379 0.2311,-0.11812 0.53924,-0.11812 0.75493,0 0.75493,0.39544 0,0.4622 -0.24137,1.05793 -0.24137,0.59059 -0.41085,0.95522 l -0.30813,0.70871 q -0.33895,0.78061 -0.33895,1.1247 0,0.22597 0.22596,0.22597 0.22083,0 0.33382,-0.0565 0.11298,-0.0565 0.16434,-0.0565 z"
         id="path6658" />
      <path
         d="m 117.37531,191.38846 q -0.10271,-0.077 -0.16434,-0.16947 -0.0616,-0.0976 -0.0668,-0.16434 -0.005,-0.0719 0.0257,-0.16947 0.0359,-0.10272 0.0924,-0.24651 1.04766,-2.57807 1.04766,-3.46139 -0.0154,-0.24651 -0.16947,-0.34922 l -0.10271,-0.0719 q -0.0462,-0.0359 -0.0514,-0.12326 0,-0.0924 0.0668,-0.17461 0.0668,-0.0822 0.17461,-0.14379 0.22083,-0.11812 0.45193,-0.11812 0.23624,0 0.36463,0.0513 0.13353,0.0514 0.22597,0.13866 0.19515,0.18489 0.19515,0.39031 0.005,0.20542 -0.0462,0.41598 -0.0462,0.21056 -0.11298,0.41599 -0.0668,0.20028 -0.13353,0.38517 -0.0668,0.17974 -0.0873,0.26705 -0.0411,0.17974 -0.0308,0.22596 0.12326,-0.10784 0.14894,-0.21056 l 0.20028,-0.38003 q 0.66763,-1.20173 1.30445,-1.59204 0.18488,-0.10784 0.44166,-0.10784 0.26191,0 0.42112,0.18488 0.1592,0.17974 0.16433,0.40058 0.0103,0.22083 -0.0308,0.36976 -0.0359,0.14379 -0.11298,0.27218 -0.16948,0.2876 -0.41085,0.2876 -0.0668,0 -0.12325,-0.0462 l -0.11299,-0.0976 q -0.16947,-0.14893 -0.32868,-0.14893 -0.15406,0 -0.38003,0.20542 -0.22083,0.20543 -0.4622,0.52897 -0.81143,1.07334 -1.32499,2.40346 l -0.22596,0.59573 q -0.0873,0.22083 -0.15407,0.3184 -0.0668,0.0924 -0.20029,0.0924 -0.12839,0 -0.26191,-0.0514 -0.12839,-0.0462 -0.23111,-0.12326 z"
         id="path6660" />
      <path
         d="m 125.60767,190.14565 q 0,0.47248 0.33382,0.47248 0.2311,0 0.38003,-0.0719 0.15407,-0.0719 0.20543,-0.0719 0.10784,0 0.10784,0.11298 0,0.44166 -0.4622,0.76007 -0.48788,0.33381 -0.99631,0.16434 -0.33381,-0.11812 -0.49301,-0.50843 -0.077,-0.20028 -0.077,-0.36462 0,-0.26705 0.0514,-0.56492 -0.47761,0.97577 -1.18632,1.34553 -0.28246,0.14379 -0.60087,0.14379 -0.31841,0 -0.55464,-0.12839 -0.2311,-0.13352 -0.39544,-0.36462 -0.33382,-0.48275 -0.303,-1.212 0.0308,-0.91414 0.53923,-1.79233 0.46734,-0.82169 1.18119,-1.34039 0.71385,-0.52896 1.33526,-0.52896 0.6214,0 1.00144,0.57005 0.35435,-0.57005 0.62654,-0.57005 0.29273,0 0.44166,0.10784 0.28246,0.20543 0.20029,0.3595 -1.28904,2.63969 -1.32498,3.28678 -0.0103,0.0924 -0.0103,0.19515 z m -2.85025,0.0205 q 0,0.61627 0.39544,0.61627 0.303,0 0.74466,-0.51356 0.64709,-0.75493 1.14524,-2.03369 0.1592,-0.40058 0.26705,-0.80115 -0.0205,-0.34922 -0.29273,-0.51356 -0.0924,-0.0565 -0.27732,-0.0565 -0.17975,0 -0.42626,0.13353 -0.24137,0.13353 -0.47247,0.36463 -0.22597,0.2311 -0.42626,0.54951 -0.19515,0.31327 -0.34408,0.68303 -0.31327,0.79088 -0.31327,1.57149 z"
         id="path6662" />
      <path
         d="m 131.04113,187.167 q -0.1592,0 -0.45193,0.30814 -0.29273,0.303 -0.50842,0.55464 l -0.43653,0.52384 -0.84224,1.07334 q -0.29786,0.56491 -0.46734,0.93981 l -0.27732,0.59573 q -0.10785,0.22083 -0.19002,0.31327 -0.077,0.0873 -0.21569,0.0873 -0.13353,0 -0.26192,-0.0514 -0.12325,-0.0462 -0.21569,-0.12326 -0.19515,-0.16433 -0.19515,-0.35949 0,-0.077 0.11298,-0.303 l 0.19515,-0.41598 q 0.0924,-0.18488 0.2157,-0.47248 l 0.28759,-0.70357 q 0.606,-1.515 0.606,-1.95666 0,-0.23624 -0.15407,-0.34922 l -0.10271,-0.0719 q -0.0514,-0.0359 -0.0514,-0.12326 0,-0.0924 0.0668,-0.17461 0.0719,-0.0822 0.18488,-0.14379 0.2311,-0.11812 0.4622,-0.11812 0.23624,0 0.36463,0.0513 0.12839,0.0514 0.2157,0.13866 0.19001,0.17975 0.19001,0.3749 0,0.19516 -0.0514,0.39544 -0.0462,0.19516 -0.12326,0.40058 -0.0719,0.20029 -0.15407,0.39544 -0.0822,0.19515 -0.14893,0.33895 l -0.10271,0.22083 q -0.0411,0.0822 -0.0205,0.0514 0.57005,-0.79088 0.74979,-1.01685 l 0.3595,-0.43139 q 0.39544,-0.4622 0.6214,-0.61114 0.45707,-0.30813 0.71899,-0.30813 0.26191,0 0.44166,0.0668 0.17974,0.0668 0.31327,0.19002 0.28246,0.26191 0.28246,0.66762 0,0.40572 -0.18488,0.84738 -0.18489,0.44166 -0.32355,0.71898 -0.13352,0.27219 -0.25678,0.55465 -0.38517,0.85764 -0.38517,1.24795 0,0.17461 0.27733,0.17461 0.21569,0 0.3903,-0.0925 0.17975,-0.0924 0.2311,-0.0924 0.10785,0 0.10785,0.10785 0,0.45707 -0.46734,0.76521 -0.31327,0.21055 -0.57519,0.21055 -0.26191,0 -0.43652,-0.0565 -0.16948,-0.0565 -0.303,-0.17974 -0.303,-0.27219 -0.303,-0.76007 0,-0.59573 0.3749,-1.48932 0.27218,-0.61114 0.38517,-0.83711 l 0.17461,-0.36462 q 0.1592,-0.32868 0.1592,-0.5187 0,-0.19002 -0.28246,-0.19002 z"
         id="path6664" />
      <path
         d="m 138.36963,190.47433 q 0.10785,0 0.10785,0.11298 0,0.44166 -0.45707,0.76007 -0.303,0.21569 -0.57519,0.21569 -0.26705,0 -0.42625,-0.0616 -0.1592,-0.0616 -0.28759,-0.19516 -0.2876,-0.30813 -0.2876,-0.84737 0,-0.10785 0.0411,-0.34408 -0.41599,0.64195 -0.71385,0.90386 -0.60087,0.54437 -1.17605,0.54437 -0.909,0 -1.19146,-0.82169 -0.10271,-0.303 -0.10271,-0.76007 0,-0.45707 0.13866,-0.92441 0.13866,-0.46734 0.3749,-0.88845 0.24137,-0.42112 0.55464,-0.78061 0.31841,-0.36463 0.66763,-0.63168 0.7498,-0.55978 1.3558,-0.55978 0.606,0 0.97062,0.49301 0.8936,-3.06081 1.34553,-3.61032 0.19002,-0.22597 0.40058,-0.22597 0.34922,0 0.52896,0.20029 0.0565,0.0668 0.0565,0.13353 0,0.0668 -0.0822,0.24651 -0.0822,0.17974 -0.24137,0.58032 -0.45707,1.20686 -0.64195,1.76664 -0.47247,1.43284 -0.63681,1.97207 l -0.28246,0.95009 q -0.36463,1.26849 -0.36463,1.61257 0,0.34409 0.25165,0.34409 0.2311,0 0.36976,-0.0616 l 0.19515,-0.0924 q 0.0565,-0.0308 0.10785,-0.0308 z m -3.52815,0.31841 q 0.52896,0 1.212,-1.03226 0.71384,-1.0682 0.9963,-2.32642 -0.0205,-0.34922 -0.29273,-0.51356 -0.0924,-0.0565 -0.28245,-0.0565 -0.18489,0 -0.43653,0.13867 -0.24651,0.13352 -0.48275,0.36462 -0.2311,0.2311 -0.43652,0.54438 -0.20029,0.30813 -0.34922,0.65735 -0.32354,0.76007 -0.32354,1.49446 0,0.72926 0.39544,0.72926 z"
         id="path6666" />
      <path
         d="m 139.5765,191.1625 q -0.2157,-0.20543 -0.33895,-0.5187 -0.12326,-0.3184 -0.12839,-0.74979 -0.005,-0.43139 0.10271,-0.87306 0.11298,-0.44166 0.31327,-0.8525 0.20542,-0.41085 0.48788,-0.77034 0.28759,-0.3595 0.63168,-0.62655 0.7498,-0.57518 1.55608,-0.57518 1.05794,0 1.43284,0.92954 0.26705,0.67276 0.0308,1.62798 -0.2157,0.87819 -0.79088,1.61258 -0.57005,0.73439 -1.34553,1.04253 -0.3903,0.15406 -0.77034,0.15406 -0.3749,0 -0.67276,-0.0976 -0.29273,-0.0976 -0.50842,-0.303 z m 0.98089,-2.49077 q -0.15406,0.38004 -0.2465,0.78061 -0.0873,0.40058 -0.0822,0.76007 0.005,0.35436 0.10784,0.55978 0.10785,0.20029 0.34409,0.20029 0.23624,0 0.4622,-0.1592 0.2311,-0.16434 0.4468,-0.43139 0.21569,-0.26705 0.40571,-0.61627 0.19002,-0.34922 0.33381,-0.72926 0.31328,-0.82683 0.303,-1.46878 0,-0.56491 -0.2311,-0.71898 -0.0924,-0.0616 -0.26191,-0.0616 -0.16434,0 -0.38004,0.15407 -0.21569,0.14893 -0.43139,0.40571 -0.21569,0.25678 -0.41598,0.60087 -0.20029,0.34408 -0.35436,0.72411 z"
         id="path6668" />
    </g>
  </g>
</svg>
